<?xml version="1.0" encoding="utf-8" standalone="no"?>
<!DOCTYPE svg PUBLIC "-//W3C//DTD SVG 1.1//EN"
  "http://www.w3.org/Graphics/SVG/1.1/DTD/svg11.dtd">
<!-- Created with matplotlib (https://matplotlib.org/) -->
<svg height="732.96pt" version="1.1" viewBox="0 0 1382.4 732.96" width="1382.4pt" xmlns="http://www.w3.org/2000/svg" xmlns:xlink="http://www.w3.org/1999/xlink">
 <defs>
  <style type="text/css">
*{stroke-linecap:butt;stroke-linejoin:round;}
  </style>
 </defs>
 <g id="figure_1">
  <g id="patch_1">
   <path d="M 0 732.96 
L 1382.4 732.96 
L 1382.4 0 
L 0 0 
z
" style="fill:#ffffff;"/>
  </g>
  <g id="axes_1">
   <g id="patch_2">
    <path d="M 172.8 652.3344 
L 1244.16 652.3344 
L 1244.16 87.9552 
L 172.8 87.9552 
z
" style="fill:#eaeaf2;"/>
   </g>
   <g id="matplotlib.axis_1">
    <g id="xtick_1">
     <g id="line2d_1">
      <path clip-path="url(#p1c105bfe00)" d="M 265.769256 652.3344 
L 265.769256 87.9552 
" style="fill:none;stroke:#ffffff;stroke-linecap:round;"/>
     </g>
     <g id="text_1">
      <!-- $\mathdefault{10^{-10}}$ -->
      <defs>
       <path d="M 7.625 0 
L 7.625 7.46875 
L 25.140625 7.46875 
L 25.140625 60.40625 
L 9.625 49.3125 
L 9.625 57.625 
L 25.875 68.796875 
L 33.984375 68.796875 
L 33.984375 7.46875 
L 50.734375 7.46875 
L 50.734375 0 
z
" id="LiberationSans-49"/>
       <path d="M 51.703125 34.421875 
Q 51.703125 17.1875 45.625 8.09375 
Q 39.546875 -0.984375 27.6875 -0.984375 
Q 15.828125 -0.984375 9.859375 8.046875 
Q 3.90625 17.09375 3.90625 34.421875 
Q 3.90625 52.15625 9.6875 60.984375 
Q 15.484375 69.828125 27.984375 69.828125 
Q 40.140625 69.828125 45.921875 60.890625 
Q 51.703125 51.953125 51.703125 34.421875 
z
M 42.78125 34.421875 
Q 42.78125 49.3125 39.328125 56 
Q 35.890625 62.703125 27.984375 62.703125 
Q 19.875 62.703125 16.328125 56.109375 
Q 12.796875 49.515625 12.796875 34.421875 
Q 12.796875 19.78125 16.375 12.984375 
Q 19.96875 6.203125 27.78125 6.203125 
Q 35.546875 6.203125 39.15625 13.125 
Q 42.78125 20.0625 42.78125 34.421875 
z
" id="LiberationSans-48"/>
       <path d="M 4.9375 29.6875 
L 4.9375 36.8125 
L 53.515625 36.8125 
L 53.515625 29.6875 
z
" id="LiberationSans-8722"/>
      </defs>
      <g style="fill:#262626;" transform="translate(252.899256 663.805963)scale(0.11 -0.11)">
       <use transform="translate(0 0.140625)" xlink:href="#LiberationSans-49"/>
       <use transform="translate(55.615234 0.140625)" xlink:href="#LiberationSans-48"/>
       <use transform="translate(112.154961 37.120312)scale(0.7)" xlink:href="#LiberationSans-8722"/>
       <use transform="translate(153.033867 37.120312)scale(0.7)" xlink:href="#LiberationSans-49"/>
       <use transform="translate(191.964531 37.120312)scale(0.7)" xlink:href="#LiberationSans-48"/>
      </g>
     </g>
    </g>
    <g id="xtick_2">
     <g id="line2d_2">
      <path clip-path="url(#p1c105bfe00)" d="M 708.48 652.3344 
L 708.48 87.9552 
" style="fill:none;stroke:#ffffff;stroke-linecap:round;"/>
     </g>
     <g id="text_2">
      <!-- $\mathdefault{10^{-9}}$ -->
      <defs>
       <path d="M 50.875 35.796875 
Q 50.875 18.0625 44.40625 8.53125 
Q 37.9375 -0.984375 25.984375 -0.984375 
Q 17.921875 -0.984375 13.0625 2.40625 
Q 8.203125 5.8125 6.109375 13.375 
L 14.5 14.703125 
Q 17.140625 6.109375 26.125 6.109375 
Q 33.6875 6.109375 37.84375 13.140625 
Q 42 20.171875 42.1875 33.203125 
Q 40.234375 28.8125 35.5 26.140625 
Q 30.765625 23.484375 25.09375 23.484375 
Q 15.828125 23.484375 10.25 29.828125 
Q 4.6875 36.1875 4.6875 46.6875 
Q 4.6875 57.46875 10.734375 63.640625 
Q 16.796875 69.828125 27.59375 69.828125 
Q 39.0625 69.828125 44.96875 61.328125 
Q 50.875 52.828125 50.875 35.796875 
z
M 41.3125 44.28125 
Q 41.3125 52.59375 37.5 57.640625 
Q 33.6875 62.703125 27.296875 62.703125 
Q 20.953125 62.703125 17.28125 58.375 
Q 13.625 54.046875 13.625 46.6875 
Q 13.625 39.15625 17.28125 34.78125 
Q 20.953125 30.421875 27.203125 30.421875 
Q 31 30.421875 34.265625 32.15625 
Q 37.546875 33.890625 39.421875 37.0625 
Q 41.3125 40.234375 41.3125 44.28125 
z
" id="LiberationSans-57"/>
      </defs>
      <g style="fill:#262626;" transform="translate(697.755 663.805963)scale(0.11 -0.11)">
       <use transform="translate(0 0.140625)" xlink:href="#LiberationSans-49"/>
       <use transform="translate(55.615234 0.140625)" xlink:href="#LiberationSans-48"/>
       <use transform="translate(112.154961 37.120312)scale(0.7)" xlink:href="#LiberationSans-8722"/>
       <use transform="translate(153.033867 37.120312)scale(0.7)" xlink:href="#LiberationSans-57"/>
      </g>
     </g>
    </g>
    <g id="xtick_3">
     <g id="line2d_3">
      <path clip-path="url(#p1c105bfe00)" d="M 1151.190744 652.3344 
L 1151.190744 87.9552 
" style="fill:none;stroke:#ffffff;stroke-linecap:round;"/>
     </g>
     <g id="text_3">
      <!-- $\mathdefault{10^{-8}}$ -->
      <defs>
       <path d="M 51.265625 19.1875 
Q 51.265625 9.671875 45.203125 4.34375 
Q 39.15625 -0.984375 27.828125 -0.984375 
Q 16.796875 -0.984375 10.5625 4.234375 
Q 4.34375 9.46875 4.34375 19.09375 
Q 4.34375 25.828125 8.203125 30.421875 
Q 12.0625 35.015625 18.0625 35.984375 
L 18.0625 36.1875 
Q 12.453125 37.5 9.203125 41.890625 
Q 5.953125 46.296875 5.953125 52.203125 
Q 5.953125 60.0625 11.828125 64.9375 
Q 17.71875 69.828125 27.640625 69.828125 
Q 37.796875 69.828125 43.671875 65.03125 
Q 49.5625 60.25 49.5625 52.09375 
Q 49.5625 46.1875 46.28125 41.796875 
Q 43.015625 37.40625 37.359375 36.28125 
L 37.359375 36.078125 
Q 43.953125 35.015625 47.609375 30.5 
Q 51.265625 25.984375 51.265625 19.1875 
z
M 40.4375 51.609375 
Q 40.4375 63.28125 27.640625 63.28125 
Q 21.4375 63.28125 18.1875 60.34375 
Q 14.9375 57.421875 14.9375 51.609375 
Q 14.9375 45.703125 18.28125 42.59375 
Q 21.625 39.5 27.734375 39.5 
Q 33.9375 39.5 37.1875 42.359375 
Q 40.4375 45.21875 40.4375 51.609375 
z
M 42.140625 20.015625 
Q 42.140625 26.421875 38.328125 29.65625 
Q 34.515625 32.90625 27.640625 32.90625 
Q 20.953125 32.90625 17.1875 29.40625 
Q 13.421875 25.921875 13.421875 19.828125 
Q 13.421875 5.609375 27.9375 5.609375 
Q 35.109375 5.609375 38.625 9.046875 
Q 42.140625 12.5 42.140625 20.015625 
z
" id="LiberationSans-56"/>
      </defs>
      <g style="fill:#262626;" transform="translate(1140.465744 663.805963)scale(0.11 -0.11)">
       <use transform="translate(0 0.140625)" xlink:href="#LiberationSans-49"/>
       <use transform="translate(55.615234 0.140625)" xlink:href="#LiberationSans-48"/>
       <use transform="translate(112.154961 37.120312)scale(0.7)" xlink:href="#LiberationSans-8722"/>
       <use transform="translate(153.033867 37.120312)scale(0.7)" xlink:href="#LiberationSans-56"/>
      </g>
     </g>
    </g>
    <g id="xtick_4"/>
    <g id="xtick_5"/>
    <g id="xtick_6"/>
    <g id="xtick_7"/>
    <g id="xtick_8"/>
    <g id="xtick_9"/>
    <g id="xtick_10"/>
    <g id="xtick_11"/>
    <g id="xtick_12"/>
    <g id="xtick_13"/>
    <g id="xtick_14"/>
    <g id="xtick_15"/>
    <g id="xtick_16"/>
    <g id="xtick_17"/>
    <g id="xtick_18"/>
    <g id="xtick_19"/>
    <g id="xtick_20"/>
    <g id="xtick_21"/>
    <g id="xtick_22"/>
    <g id="text_4">
     <!-- $\Omega_0$ -->
     <defs>
      <path d="M 72.609375 8.6875 
L 72.609375 0 
L 43.3125 0 
L 43.3125 8.6875 
Q 51.953125 13.421875 56.78125 21.53125 
Q 61.625 29.640625 61.625 39.5 
Q 61.625 51.21875 55.171875 58.296875 
Q 48.734375 65.375 38.1875 65.375 
Q 27.640625 65.375 21.171875 58.265625 
Q 14.703125 51.171875 14.703125 39.5 
Q 14.703125 29.640625 19.53125 21.53125 
Q 24.421875 13.421875 33.109375 8.6875 
L 33.109375 0 
L 3.8125 0 
L 3.8125 8.6875 
L 19.390625 8.6875 
Q 11.671875 15.484375 8.109375 22.75 
Q 4.59375 30.03125 4.59375 39.015625 
Q 4.59375 54.546875 13.96875 64.15625 
Q 23.296875 73.78125 38.1875 73.78125 
Q 52.984375 73.78125 62.40625 64.15625 
Q 71.78125 54.59375 71.78125 39.5 
Q 71.78125 30.03125 68.3125 22.796875 
Q 64.84375 15.578125 56.984375 8.6875 
z
" id="DejaVuSans-937"/>
      <path d="M 31.78125 66.40625 
Q 24.171875 66.40625 20.328125 58.90625 
Q 16.5 51.421875 16.5 36.375 
Q 16.5 21.390625 20.328125 13.890625 
Q 24.171875 6.390625 31.78125 6.390625 
Q 39.453125 6.390625 43.28125 13.890625 
Q 47.125 21.390625 47.125 36.375 
Q 47.125 51.421875 43.28125 58.90625 
Q 39.453125 66.40625 31.78125 66.40625 
z
M 31.78125 74.21875 
Q 44.046875 74.21875 50.515625 64.515625 
Q 56.984375 54.828125 56.984375 36.375 
Q 56.984375 17.96875 50.515625 8.265625 
Q 44.046875 -1.421875 31.78125 -1.421875 
Q 19.53125 -1.421875 13.0625 8.265625 
Q 6.59375 17.96875 6.59375 36.375 
Q 6.59375 54.828125 13.0625 64.515625 
Q 19.53125 74.21875 31.78125 74.21875 
z
" id="DejaVuSans-48"/>
     </defs>
     <g style="fill:#262626;" transform="translate(695.98 684.582213)scale(0.2 -0.2)">
      <use transform="translate(0 0.21875)" xlink:href="#DejaVuSans-937"/>
      <use transform="translate(77.373047 -16.1875)scale(0.7)" xlink:href="#DejaVuSans-48"/>
     </g>
    </g>
   </g>
   <g id="matplotlib.axis_2">
    <g id="ytick_1">
     <g id="line2d_4">
      <path clip-path="url(#p1c105bfe00)" d="M 172.8 582.796388 
L 1244.16 582.796388 
" style="fill:none;stroke:#ffffff;stroke-linecap:round;"/>
     </g>
     <g id="text_5">
      <!-- $\mathdefault{10^{-1}}$ -->
      <g style="fill:#262626;" transform="translate(147.85 586.782169)scale(0.11 -0.11)">
       <use transform="translate(0 0.8625)" xlink:href="#LiberationSans-49"/>
       <use transform="translate(55.615234 0.8625)" xlink:href="#LiberationSans-48"/>
       <use transform="translate(112.154961 37.842188)scale(0.7)" xlink:href="#LiberationSans-8722"/>
       <use transform="translate(153.033867 37.842188)scale(0.7)" xlink:href="#LiberationSans-49"/>
      </g>
     </g>
    </g>
    <g id="ytick_2">
     <g id="line2d_5">
      <path clip-path="url(#p1c105bfe00)" d="M 172.8 284.516904 
L 1244.16 284.516904 
" style="fill:none;stroke:#ffffff;stroke-linecap:round;"/>
     </g>
     <g id="text_6">
      <!-- $\mathdefault{10^{0}}$ -->
      <g style="fill:#262626;" transform="translate(152.36 288.502685)scale(0.11 -0.11)">
       <use transform="translate(0 0.140625)" xlink:href="#LiberationSans-49"/>
       <use transform="translate(55.615234 0.140625)" xlink:href="#LiberationSans-48"/>
       <use transform="translate(112.154961 37.120312)scale(0.7)" xlink:href="#LiberationSans-48"/>
      </g>
     </g>
    </g>
    <g id="ytick_3"/>
    <g id="ytick_4"/>
    <g id="ytick_5"/>
    <g id="ytick_6"/>
    <g id="ytick_7"/>
    <g id="ytick_8"/>
    <g id="ytick_9"/>
    <g id="ytick_10"/>
    <g id="ytick_11"/>
    <g id="ytick_12"/>
    <g id="ytick_13"/>
    <g id="ytick_14"/>
    <g id="ytick_15"/>
    <g id="ytick_16"/>
    <g id="ytick_17"/>
    <g id="text_7">
     <!-- $\frac{\Delta \Omega_0}{\Omega_0}$ -->
     <defs>
      <path d="M 34.1875 63.1875 
L 14.15625 8.203125 
L 54.25 8.203125 
z
M 0.78125 0 
L 28.609375 72.90625 
L 39.796875 72.90625 
L 67.578125 0 
z
" id="DejaVuSans-916"/>
     </defs>
     <g style="fill:#262626;" transform="translate(133.45 384.9448)rotate(-90)scale(0.2 -0.2)">
      <use transform="translate(0 56.353125)scale(0.7)" xlink:href="#DejaVuSans-916"/>
      <use transform="translate(47.885742 56.353125)scale(0.7)" xlink:href="#DejaVuSans-937"/>
      <use transform="translate(102.046875 44.86875)scale(0.49)" xlink:href="#DejaVuSans-48"/>
      <use transform="translate(24 -38.724844)scale(0.7)" xlink:href="#DejaVuSans-937"/>
      <use transform="translate(78.161133 -50.209219)scale(0.49)" xlink:href="#DejaVuSans-48"/>
      <path d="M 0 19.172031 
L 0 25.422031 
L 135.13623 25.422031 
L 135.13623 19.172031 
L 0 19.172031 
z
"/>
     </g>
    </g>
   </g>
   <g id="line2d_6">
    <path clip-path="url(#p1c105bfe00)" d="M 1195.461818 626.6808 
L 1176.937985 622.455479 
L 1158.414152 617.995435 
L 1139.890319 613.296573 
L 1122.341425 608.621533 
L 1104.792531 603.726477 
L 1087.243636 598.609328 
L 1069.694742 593.268417 
L 1052.145848 587.702458 
L 1034.596953 581.910509 
L 1017.048059 575.891936 
L 999.499165 569.646378 
L 981.95027 563.173712 
L 964.401376 556.474024 
L 946.852482 549.547587 
L 928.328649 541.990846 
L 909.804816 534.18268 
L 891.280983 526.12402 
L 872.75715 517.816028 
L 854.233317 509.260131 
L 835.709484 500.458066 
L 817.185651 491.411947 
L 798.661818 482.124328 
L 780.137985 472.598282 
L 760.639214 462.317332 
L 741.140442 451.781368 
L 721.641671 440.996404 
L 701.167961 429.411892 
L 680.694251 417.569951 
L 659.245602 404.899627 
L 637.796953 391.972229 
L 615.373366 378.198871 
L 591.97484 363.565264 
L 567.601376 348.06243 
L 541.278034 331.052869 
L 513.004816 312.514116 
L 481.806781 291.784787 
L 446.708993 268.189942 
L 404.786634 239.725551 
L 350.190074 202.364493 
L 240.022015 126.625154 
L 221.498182 113.893603 
L 221.498182 113.893603 
" style="fill:none;stroke:#4c72b0;stroke-linecap:round;stroke-width:1.5;"/>
   </g>
   <g id="line2d_7">
    <path clip-path="url(#p1c105bfe00)" d="M 1195.461818 621.603079 
L 1177.912924 618.300988 
L 1160.364029 614.778594 
L 1142.815135 611.026139 
L 1126.241179 607.262485 
L 1109.667224 603.277858 
L 1093.093268 599.065347 
L 1076.519312 594.618653 
L 1059.945356 589.932168 
L 1044.346339 585.29797 
L 1028.747322 580.443723 
L 1013.148305 575.366781 
L 997.549287 570.065241 
L 981.95027 564.537965 
L 966.351253 558.784601 
L 950.752236 552.805583 
L 934.17828 546.206998 
L 917.604324 539.357456 
L 901.030369 532.260298 
L 884.456413 524.919751 
L 867.882457 517.340869 
L 850.333563 509.062854 
L 832.784668 500.53186 
L 815.235774 491.756323 
L 796.711941 482.237958 
L 778.188108 472.468428 
L 758.689337 461.926208 
L 739.190565 451.132596 
L 718.716855 439.544233 
L 697.268206 427.141389 
L 674.844619 413.907371 
L 651.446093 399.828759 
L 627.072629 384.895534 
L 601.724226 369.101089 
L 574.425946 351.820462 
L 546.152727 333.657897 
L 515.929631 313.979598 
L 482.78172 292.124228 
L 447.683931 268.715851 
L 408.686388 242.434005 
L 365.789091 213.249393 
L 318.017101 180.474593 
L 263.420541 142.740359 
L 221.498182 113.6088 
L 221.498182 113.6088 
" style="fill:none;stroke:#dd8452;stroke-linecap:round;stroke-width:1.5;"/>
   </g>
   <g id="line2d_8">
    <path clip-path="url(#p1c105bfe00)" d="M 172.8 374.307976 
L 1244.16 374.307976 
" style="fill:none;stroke:#ff0000;stroke-linecap:round;stroke-width:1.5;"/>
   </g>
   <g id="line2d_9">
    <path clip-path="url(#p1c105bfe00)" d="M 172.8 582.796388 
L 1244.16 582.796388 
" style="fill:none;stroke:#008000;stroke-linecap:round;stroke-width:1.5;"/>
   </g>
   <g id="patch_3">
    <path d="M 172.8 652.3344 
L 172.8 87.9552 
" style="fill:none;"/>
   </g>
   <g id="patch_4">
    <path d="M 1244.16 652.3344 
L 1244.16 87.9552 
" style="fill:none;"/>
   </g>
   <g id="patch_5">
    <path d="M 172.8 652.3344 
L 1244.16 652.3344 
" style="fill:none;"/>
   </g>
   <g id="patch_6">
    <path d="M 172.8 87.9552 
L 1244.16 87.9552 
" style="fill:none;"/>
   </g>
   <g id="text_8">
    <!-- $a = $9.01e-11; $b = $-1.0506$; c = $0.038624; $d = $-0.020567 -->
    <defs>
     <path d="M 53.71875 31.203125 
L 47.609375 0 
L 38.625 0 
L 40.28125 8.296875 
Q 36.328125 3.421875 31.265625 1 
Q 26.21875 -1.421875 20.015625 -1.421875 
Q 13.03125 -1.421875 8.5625 2.84375 
Q 4.109375 7.125 4.109375 13.8125 
Q 4.109375 23.390625 11.75 28.953125 
Q 19.390625 34.515625 32.8125 34.515625 
L 45.3125 34.515625 
L 45.796875 36.921875 
Q 45.90625 37.3125 45.953125 37.765625 
Q 46 38.234375 46 39.203125 
Q 46 43.5625 42.453125 45.96875 
Q 38.921875 48.390625 32.515625 48.390625 
Q 28.125 48.390625 23.5 47.265625 
Q 18.890625 46.140625 14.015625 43.890625 
L 15.578125 52.203125 
Q 20.65625 54.109375 25.515625 55.046875 
Q 30.375 56 34.90625 56 
Q 44.578125 56 49.625 51.796875 
Q 54.6875 47.609375 54.6875 39.59375 
Q 54.6875 37.984375 54.4375 35.8125 
Q 54.203125 33.640625 53.71875 31.203125 
z
M 44 27.484375 
L 35.015625 27.484375 
Q 23.96875 27.484375 18.671875 24.53125 
Q 13.375 21.578125 13.375 15.375 
Q 13.375 11.078125 16.078125 8.640625 
Q 18.796875 6.203125 23.578125 6.203125 
Q 30.90625 6.203125 36.375 11.453125 
Q 41.84375 16.703125 43.609375 25.484375 
z
" id="DejaVuSans-Oblique-97"/>
     <path d="M 10.59375 45.40625 
L 73.1875 45.40625 
L 73.1875 37.203125 
L 10.59375 37.203125 
z
M 10.59375 25.484375 
L 73.1875 25.484375 
L 73.1875 17.1875 
L 10.59375 17.1875 
z
" id="DejaVuSans-61"/>
     <path d="M 9.125 0 
L 9.125 10.6875 
L 18.65625 10.6875 
L 18.65625 0 
z
" id="LiberationSans-46"/>
     <path d="M 13.484375 24.5625 
Q 13.484375 15.484375 17.234375 10.546875 
Q 21 5.609375 28.21875 5.609375 
Q 33.9375 5.609375 37.375 7.90625 
Q 40.828125 10.203125 42.046875 13.71875 
L 49.75 11.53125 
Q 45.015625 -0.984375 28.21875 -0.984375 
Q 16.5 -0.984375 10.375 6 
Q 4.25 12.984375 4.25 26.765625 
Q 4.25 39.84375 10.375 46.828125 
Q 16.5 53.8125 27.875 53.8125 
Q 51.171875 53.8125 51.171875 25.734375 
L 51.171875 24.5625 
z
M 42.09375 31.296875 
Q 41.359375 39.65625 37.84375 43.484375 
Q 34.328125 47.3125 27.734375 47.3125 
Q 21.34375 47.3125 17.609375 43.03125 
Q 13.875 38.765625 13.578125 31.296875 
z
" id="LiberationSans-101"/>
     <path d="M 4.4375 22.65625 
L 4.4375 30.46875 
L 28.859375 30.46875 
L 28.859375 22.65625 
z
" id="LiberationSans-45"/>
     <path d="M 18.796875 10.109375 
L 18.796875 2.484375 
Q 18.796875 -2.6875 17.859375 -6.15625 
Q 16.9375 -9.625 14.984375 -12.796875 
L 8.984375 -12.796875 
Q 13.578125 -6.15625 13.578125 0 
L 9.28125 0 
L 9.28125 10.109375 
z
M 9.28125 42.71875 
L 9.28125 52.828125 
L 18.796875 52.828125 
L 18.796875 42.71875 
z
" id="LiberationSans-59"/>
     <path id="LiberationSans-32"/>
     <path d="M 49.515625 33.40625 
Q 49.515625 40.484375 46.265625 44.484375 
Q 43.015625 48.484375 37.3125 48.484375 
Q 33.15625 48.484375 29.515625 46.453125 
Q 25.875 44.4375 23.1875 40.578125 
Q 20.359375 36.53125 18.71875 31.171875 
Q 17.09375 25.828125 17.09375 20.515625 
Q 17.09375 13.765625 20.28125 9.9375 
Q 23.484375 6.109375 29.109375 6.109375 
Q 33.34375 6.109375 36.953125 8.078125 
Q 40.578125 10.0625 43.3125 13.921875 
Q 46.09375 17.921875 47.796875 23.234375 
Q 49.515625 28.5625 49.515625 33.40625 
z
M 21.578125 46.390625 
Q 24.90625 50.875 29.90625 53.4375 
Q 34.90625 56 40.375 56 
Q 48.78125 56 53.734375 50.328125 
Q 58.6875 44.671875 58.6875 35.015625 
Q 58.6875 27.09375 55.78125 19.671875 
Q 52.875 12.25 47.515625 6.5 
Q 44 2.6875 39.40625 0.625 
Q 34.8125 -1.421875 29.78125 -1.421875 
Q 24.46875 -1.421875 20.5625 1.015625 
Q 16.65625 3.46875 14.203125 8.296875 
L 12.59375 0 
L 3.609375 0 
L 18.40625 75.984375 
L 27.390625 75.984375 
z
" id="DejaVuSans-Oblique-98"/>
     <path d="M 51.421875 22.40625 
Q 51.421875 11.53125 44.953125 5.265625 
Q 38.484375 -0.984375 27 -0.984375 
Q 17.390625 -0.984375 11.46875 3.21875 
Q 5.5625 7.421875 4 15.375 
L 12.890625 16.40625 
Q 15.671875 6.203125 27.203125 6.203125 
Q 34.28125 6.203125 38.28125 10.46875 
Q 42.28125 14.75 42.28125 22.21875 
Q 42.28125 28.71875 38.25 32.71875 
Q 34.234375 36.71875 27.390625 36.71875 
Q 23.828125 36.71875 20.75 35.59375 
Q 17.671875 34.46875 14.59375 31.78125 
L 6 31.78125 
L 8.296875 68.796875 
L 47.40625 68.796875 
L 47.40625 61.328125 
L 16.3125 61.328125 
L 14.984375 39.5 
Q 20.703125 43.890625 29.203125 43.890625 
Q 39.359375 43.890625 45.390625 37.9375 
Q 51.421875 31.984375 51.421875 22.40625 
z
" id="LiberationSans-53"/>
     <path d="M 51.21875 22.515625 
Q 51.21875 11.625 45.3125 5.3125 
Q 39.40625 -0.984375 29 -0.984375 
Q 17.390625 -0.984375 11.234375 7.65625 
Q 5.078125 16.3125 5.078125 32.8125 
Q 5.078125 50.6875 11.46875 60.25 
Q 17.875 69.828125 29.6875 69.828125 
Q 45.265625 69.828125 49.3125 55.8125 
L 40.921875 54.296875 
Q 38.328125 62.703125 29.59375 62.703125 
Q 22.078125 62.703125 17.9375 55.6875 
Q 13.8125 48.6875 13.8125 35.40625 
Q 16.21875 39.84375 20.5625 42.15625 
Q 24.90625 44.484375 30.515625 44.484375 
Q 40.046875 44.484375 45.625 38.515625 
Q 51.21875 32.5625 51.21875 22.515625 
z
M 42.28125 22.125 
Q 42.28125 29.59375 38.625 33.640625 
Q 34.96875 37.703125 28.421875 37.703125 
Q 22.265625 37.703125 18.484375 34.109375 
Q 14.703125 30.515625 14.703125 24.21875 
Q 14.703125 16.265625 18.625 11.1875 
Q 22.5625 6.109375 28.71875 6.109375 
Q 35.0625 6.109375 38.671875 10.375 
Q 42.28125 14.65625 42.28125 22.125 
z
" id="LiberationSans-54"/>
     <path d="M 11.71875 51.703125 
L 22.015625 51.703125 
L 22.015625 39.3125 
L 11.71875 39.3125 
z
M 11.71875 12.40625 
L 22.015625 12.40625 
L 22.015625 4 
L 14.015625 -11.625 
L 7.71875 -11.625 
L 11.71875 4 
z
" id="DejaVuSans-59"/>
     <path d="M 53.609375 52.59375 
L 51.8125 43.703125 
Q 48.578125 46.046875 44.9375 47.21875 
Q 41.3125 48.390625 37.40625 48.390625 
Q 33.109375 48.390625 29.21875 46.875 
Q 25.34375 45.359375 22.703125 42.578125 
Q 18.5 38.328125 16.203125 32.609375 
Q 13.921875 26.90625 13.921875 20.796875 
Q 13.921875 13.421875 17.609375 9.8125 
Q 21.296875 6.203125 28.8125 6.203125 
Q 32.515625 6.203125 36.6875 7.328125 
Q 40.875 8.453125 45.40625 10.6875 
L 43.703125 1.8125 
Q 39.796875 0.203125 35.671875 -0.609375 
Q 31.546875 -1.421875 27.203125 -1.421875 
Q 16.3125 -1.421875 10.453125 4.015625 
Q 4.59375 9.46875 4.59375 19.578125 
Q 4.59375 28.078125 7.640625 35.234375 
Q 10.6875 42.390625 16.703125 48.09375 
Q 20.796875 52 26.3125 54 
Q 31.84375 56 38.375 56 
Q 42.1875 56 45.9375 55.140625 
Q 49.703125 54.296875 53.609375 52.59375 
z
" id="DejaVuSans-Oblique-99"/>
     <path d="M 51.21875 19 
Q 51.21875 9.46875 45.15625 4.234375 
Q 39.109375 -0.984375 27.875 -0.984375 
Q 17.4375 -0.984375 11.203125 3.734375 
Q 4.984375 8.453125 3.8125 17.671875 
L 12.890625 18.5 
Q 14.65625 6.296875 27.875 6.296875 
Q 34.515625 6.296875 38.296875 9.5625 
Q 42.09375 12.84375 42.09375 19.28125 
Q 42.09375 24.90625 37.765625 28.046875 
Q 33.453125 31.203125 25.296875 31.203125 
L 20.3125 31.203125 
L 20.3125 38.8125 
L 25.09375 38.8125 
Q 32.328125 38.8125 36.296875 41.96875 
Q 40.28125 45.125 40.28125 50.6875 
Q 40.28125 56.203125 37.03125 59.390625 
Q 33.796875 62.59375 27.390625 62.59375 
Q 21.578125 62.59375 17.984375 59.609375 
Q 14.40625 56.640625 13.8125 51.21875 
L 4.984375 51.90625 
Q 5.953125 60.359375 11.984375 65.09375 
Q 18.015625 69.828125 27.484375 69.828125 
Q 37.84375 69.828125 43.578125 65.015625 
Q 49.3125 60.203125 49.3125 51.609375 
Q 49.3125 45.015625 45.625 40.890625 
Q 41.9375 36.765625 34.90625 35.296875 
L 34.90625 35.109375 
Q 42.625 34.28125 46.921875 29.9375 
Q 51.21875 25.59375 51.21875 19 
z
" id="LiberationSans-51"/>
     <path d="M 5.03125 0 
L 5.03125 6.203125 
Q 7.515625 11.921875 11.109375 16.28125 
Q 14.703125 20.65625 18.65625 24.1875 
Q 22.609375 27.734375 26.484375 30.765625 
Q 30.375 33.796875 33.5 36.8125 
Q 36.625 39.84375 38.546875 43.15625 
Q 40.484375 46.484375 40.484375 50.6875 
Q 40.484375 56.34375 37.15625 59.46875 
Q 33.84375 62.59375 27.9375 62.59375 
Q 22.3125 62.59375 18.671875 59.546875 
Q 15.046875 56.5 14.40625 50.984375 
L 5.421875 51.8125 
Q 6.390625 60.0625 12.421875 64.9375 
Q 18.453125 69.828125 27.9375 69.828125 
Q 38.328125 69.828125 43.921875 64.921875 
Q 49.515625 60.015625 49.515625 50.984375 
Q 49.515625 46.96875 47.671875 43.015625 
Q 45.84375 39.0625 42.234375 35.109375 
Q 38.625 31.15625 28.421875 22.859375 
Q 22.796875 18.265625 19.46875 14.578125 
Q 16.15625 10.890625 14.703125 7.46875 
L 50.59375 7.46875 
L 50.59375 0 
z
" id="LiberationSans-50"/>
     <path d="M 43.015625 15.578125 
L 43.015625 0 
L 34.71875 0 
L 34.71875 15.578125 
L 2.296875 15.578125 
L 2.296875 22.40625 
L 33.796875 68.796875 
L 43.015625 68.796875 
L 43.015625 22.515625 
L 52.6875 22.515625 
L 52.6875 15.578125 
z
M 34.71875 58.890625 
Q 34.625 58.59375 33.34375 56.296875 
Q 32.078125 54 31.453125 53.078125 
L 13.8125 27.09375 
L 11.1875 23.484375 
L 10.40625 22.515625 
L 34.71875 22.515625 
z
" id="LiberationSans-52"/>
     <path d="M 41.796875 8.203125 
Q 38.1875 3.46875 33.25 1.015625 
Q 28.328125 -1.421875 22.3125 -1.421875 
Q 14.109375 -1.421875 9.34375 4.171875 
Q 4.59375 9.765625 4.59375 19.484375 
Q 4.59375 27.59375 7.46875 34.9375 
Q 10.359375 42.28125 15.828125 48.09375 
Q 19.4375 51.953125 23.96875 53.96875 
Q 28.515625 56 33.5 56 
Q 38.765625 56 42.796875 53.453125 
Q 46.828125 50.921875 49.03125 46.1875 
L 54.890625 75.984375 
L 63.921875 75.984375 
L 49.125 0 
L 40.09375 0 
z
M 13.921875 21.09375 
Q 13.921875 14.015625 17.109375 10.0625 
Q 20.3125 6.109375 25.984375 6.109375 
Q 30.171875 6.109375 33.765625 8.125 
Q 37.359375 10.15625 40.09375 14.109375 
Q 42.96875 18.21875 44.625 23.578125 
Q 46.296875 28.953125 46.296875 34.1875 
Q 46.296875 40.96875 43.09375 44.765625 
Q 39.890625 48.578125 34.28125 48.578125 
Q 30.03125 48.578125 26.359375 46.578125 
Q 22.703125 44.578125 20.125 40.828125 
Q 17.28125 36.765625 15.59375 31.390625 
Q 13.921875 26.03125 13.921875 21.09375 
z
" id="DejaVuSans-Oblique-100"/>
     <path d="M 50.59375 61.671875 
Q 40.046875 45.5625 35.6875 36.421875 
Q 31.34375 27.296875 29.171875 18.40625 
Q 27 9.515625 27 0 
L 17.828125 0 
Q 17.828125 13.1875 23.40625 27.75 
Q 29 42.328125 42.09375 61.328125 
L 5.125 61.328125 
L 5.125 68.796875 
L 50.59375 68.796875 
z
" id="LiberationSans-55"/>
    </defs>
    <g style="fill:#262626;" transform="translate(399.038469 142.201422)scale(0.18 -0.18)">
     <use transform="translate(0 0.015625)" xlink:href="#DejaVuSans-Oblique-97"/>
     <use transform="translate(80.761719 0.015625)" xlink:href="#DejaVuSans-61"/>
     <use transform="translate(184.033203 0.015625)" xlink:href="#LiberationSans-57"/>
     <use transform="translate(239.648438 0.015625)" xlink:href="#LiberationSans-46"/>
     <use transform="translate(267.431641 0.015625)" xlink:href="#LiberationSans-48"/>
     <use transform="translate(323.046875 0.015625)" xlink:href="#LiberationSans-49"/>
     <use transform="translate(378.662109 0.015625)" xlink:href="#LiberationSans-101"/>
     <use transform="translate(434.277344 0.015625)" xlink:href="#LiberationSans-45"/>
     <use transform="translate(467.578125 0.015625)" xlink:href="#LiberationSans-49"/>
     <use transform="translate(523.193359 0.015625)" xlink:href="#LiberationSans-49"/>
     <use transform="translate(578.808594 0.015625)" xlink:href="#LiberationSans-59"/>
     <use transform="translate(606.591797 0.015625)" xlink:href="#LiberationSans-32"/>
     <use transform="translate(634.375 0.015625)" xlink:href="#DejaVuSans-Oblique-98"/>
     <use transform="translate(717.333984 0.015625)" xlink:href="#DejaVuSans-61"/>
     <use transform="translate(820.605469 0.015625)" xlink:href="#LiberationSans-45"/>
     <use transform="translate(853.90625 0.015625)" xlink:href="#LiberationSans-49"/>
     <use transform="translate(909.521484 0.015625)" xlink:href="#LiberationSans-46"/>
     <use transform="translate(937.304688 0.015625)" xlink:href="#LiberationSans-48"/>
     <use transform="translate(992.919922 0.015625)" xlink:href="#LiberationSans-53"/>
     <use transform="translate(1048.535156 0.015625)" xlink:href="#LiberationSans-48"/>
     <use transform="translate(1104.150391 0.015625)" xlink:href="#LiberationSans-54"/>
     <use transform="translate(1159.765625 0.015625)" xlink:href="#DejaVuSans-59"/>
     <use transform="translate(1212.939453 0.015625)" xlink:href="#DejaVuSans-Oblique-99"/>
     <use transform="translate(1287.402344 0.015625)" xlink:href="#DejaVuSans-61"/>
     <use transform="translate(1390.673828 0.015625)" xlink:href="#LiberationSans-48"/>
     <use transform="translate(1446.289062 0.015625)" xlink:href="#LiberationSans-46"/>
     <use transform="translate(1474.072266 0.015625)" xlink:href="#LiberationSans-48"/>
     <use transform="translate(1529.6875 0.015625)" xlink:href="#LiberationSans-51"/>
     <use transform="translate(1585.302734 0.015625)" xlink:href="#LiberationSans-56"/>
     <use transform="translate(1640.917969 0.015625)" xlink:href="#LiberationSans-54"/>
     <use transform="translate(1696.533203 0.015625)" xlink:href="#LiberationSans-50"/>
     <use transform="translate(1752.148438 0.015625)" xlink:href="#LiberationSans-52"/>
     <use transform="translate(1807.763672 0.015625)" xlink:href="#LiberationSans-59"/>
     <use transform="translate(1835.546875 0.015625)" xlink:href="#LiberationSans-32"/>
     <use transform="translate(1863.330078 0.015625)" xlink:href="#DejaVuSans-Oblique-100"/>
     <use transform="translate(1946.289062 0.015625)" xlink:href="#DejaVuSans-61"/>
     <use transform="translate(2049.560547 0.015625)" xlink:href="#LiberationSans-45"/>
     <use transform="translate(2082.861328 0.015625)" xlink:href="#LiberationSans-48"/>
     <use transform="translate(2138.476562 0.015625)" xlink:href="#LiberationSans-46"/>
     <use transform="translate(2166.259766 0.015625)" xlink:href="#LiberationSans-48"/>
     <use transform="translate(2221.875 0.015625)" xlink:href="#LiberationSans-50"/>
     <use transform="translate(2277.490234 0.015625)" xlink:href="#LiberationSans-48"/>
     <use transform="translate(2333.105469 0.015625)" xlink:href="#LiberationSans-53"/>
     <use transform="translate(2388.720703 0.015625)" xlink:href="#LiberationSans-54"/>
     <use transform="translate(2444.335938 0.015625)" xlink:href="#LiberationSans-55"/>
    </g>
   </g>
   <g id="text_9">
    <!-- Study of the Fisher information of $\Omega_0$ ($\frac{\Delta \Omega_0}{\Omega_0}$) -->
    <defs>
     <path d="M 62.109375 19 
Q 62.109375 9.46875 54.65625 4.234375 
Q 47.21875 -0.984375 33.6875 -0.984375 
Q 8.546875 -0.984375 4.546875 16.5 
L 13.578125 18.3125 
Q 15.140625 12.109375 20.21875 9.203125 
Q 25.296875 6.296875 34.03125 6.296875 
Q 43.0625 6.296875 47.96875 9.390625 
Q 52.875 12.5 52.875 18.5 
Q 52.875 21.875 51.34375 23.96875 
Q 49.8125 26.078125 47.015625 27.4375 
Q 44.234375 28.8125 40.375 29.734375 
Q 36.53125 30.671875 31.84375 31.734375 
Q 23.6875 33.546875 19.453125 35.34375 
Q 15.234375 37.15625 12.796875 39.375 
Q 10.359375 41.609375 9.0625 44.578125 
Q 7.765625 47.5625 7.765625 51.421875 
Q 7.765625 60.25 14.53125 65.03125 
Q 21.296875 69.828125 33.890625 69.828125 
Q 45.609375 69.828125 51.8125 66.234375 
Q 58.015625 62.640625 60.5 54 
L 51.3125 52.390625 
Q 49.8125 57.859375 45.5625 60.328125 
Q 41.3125 62.796875 33.796875 62.796875 
Q 25.53125 62.796875 21.1875 60.0625 
Q 16.84375 57.328125 16.84375 51.90625 
Q 16.84375 48.734375 18.53125 46.65625 
Q 20.21875 44.578125 23.390625 43.140625 
Q 26.5625 41.703125 36.03125 39.59375 
Q 39.203125 38.875 42.359375 38.109375 
Q 45.515625 37.359375 48.390625 36.296875 
Q 51.265625 35.25 53.78125 33.828125 
Q 56.296875 32.421875 58.15625 30.375 
Q 60.015625 28.328125 61.0625 25.53125 
Q 62.109375 22.75 62.109375 19 
z
" id="LiberationSans-83"/>
     <path d="M 27.046875 0.390625 
Q 22.703125 -0.78125 18.171875 -0.78125 
Q 7.625 -0.78125 7.625 11.1875 
L 7.625 46.4375 
L 1.515625 46.4375 
L 1.515625 52.828125 
L 7.953125 52.828125 
L 10.546875 64.65625 
L 16.40625 64.65625 
L 16.40625 52.828125 
L 26.171875 52.828125 
L 26.171875 46.4375 
L 16.40625 46.4375 
L 16.40625 13.09375 
Q 16.40625 9.28125 17.640625 7.734375 
Q 18.890625 6.203125 21.96875 6.203125 
Q 23.734375 6.203125 27.046875 6.890625 
z
" id="LiberationSans-116"/>
     <path d="M 15.328125 52.828125 
L 15.328125 19.34375 
Q 15.328125 14.109375 16.359375 11.21875 
Q 17.390625 8.34375 19.625 7.078125 
Q 21.875 5.8125 26.21875 5.8125 
Q 32.5625 5.8125 36.21875 10.15625 
Q 39.890625 14.5 39.890625 22.21875 
L 39.890625 52.828125 
L 48.6875 52.828125 
L 48.6875 11.28125 
Q 48.6875 2.046875 48.96875 0 
L 40.671875 0 
Q 40.625 0.25 40.578125 1.3125 
Q 40.53125 2.390625 40.453125 3.78125 
Q 40.375 5.171875 40.28125 9.03125 
L 40.140625 9.03125 
Q 37.109375 3.5625 33.125 1.28125 
Q 29.15625 -0.984375 23.25 -0.984375 
Q 14.546875 -0.984375 10.515625 3.34375 
Q 6.5 7.671875 6.5 17.625 
L 6.5 52.828125 
z
" id="LiberationSans-117"/>
     <path d="M 40.09375 8.5 
Q 37.640625 3.421875 33.609375 1.21875 
Q 29.59375 -0.984375 23.640625 -0.984375 
Q 13.625 -0.984375 8.90625 5.75 
Q 4.203125 12.5 4.203125 26.171875 
Q 4.203125 53.8125 23.640625 53.8125 
Q 29.640625 53.8125 33.640625 51.609375 
Q 37.640625 49.421875 40.09375 44.625 
L 40.1875 44.625 
L 40.09375 50.53125 
L 40.09375 72.46875 
L 48.875 72.46875 
L 48.875 10.890625 
Q 48.875 2.640625 49.171875 0 
L 40.765625 0 
Q 40.625 0.78125 40.453125 3.609375 
Q 40.28125 6.453125 40.28125 8.5 
z
M 13.421875 26.46875 
Q 13.421875 15.375 16.34375 10.59375 
Q 19.28125 5.8125 25.875 5.8125 
Q 33.34375 5.8125 36.71875 10.984375 
Q 40.09375 16.15625 40.09375 27.046875 
Q 40.09375 37.546875 36.71875 42.421875 
Q 33.34375 47.3125 25.984375 47.3125 
Q 19.34375 47.3125 16.375 42.40625 
Q 13.421875 37.5 13.421875 26.46875 
z
" id="LiberationSans-100"/>
     <path d="M 9.328125 -20.75 
Q 5.71875 -20.75 3.265625 -20.21875 
L 3.265625 -13.625 
Q 5.125 -13.921875 7.375 -13.921875 
Q 15.578125 -13.921875 20.359375 -1.859375 
L 21.1875 0.25 
L 0.25 52.828125 
L 9.625 52.828125 
L 20.75 23.640625 
Q 21 22.953125 21.34375 22 
Q 21.6875 21.046875 23.53125 15.625 
Q 25.390625 10.203125 25.53125 9.578125 
L 28.953125 19.1875 
L 40.53125 52.828125 
L 49.8125 52.828125 
L 29.5 0 
Q 26.21875 -8.453125 23.390625 -12.578125 
Q 20.5625 -16.703125 17.109375 -18.71875 
Q 13.671875 -20.75 9.328125 -20.75 
z
" id="LiberationSans-121"/>
     <path d="M 51.421875 26.46875 
Q 51.421875 12.59375 45.3125 5.796875 
Q 39.203125 -0.984375 27.59375 -0.984375 
Q 16.015625 -0.984375 10.109375 6.078125 
Q 4.203125 13.140625 4.203125 26.46875 
Q 4.203125 53.8125 27.875 53.8125 
Q 39.984375 53.8125 45.703125 47.140625 
Q 51.421875 40.484375 51.421875 26.46875 
z
M 42.1875 26.46875 
Q 42.1875 37.40625 38.9375 42.359375 
Q 35.6875 47.3125 28.03125 47.3125 
Q 20.3125 47.3125 16.859375 42.25 
Q 13.421875 37.203125 13.421875 26.46875 
Q 13.421875 16.015625 16.8125 10.765625 
Q 20.21875 5.515625 27.484375 5.515625 
Q 35.40625 5.515625 38.796875 10.59375 
Q 42.1875 15.671875 42.1875 26.46875 
z
" id="LiberationSans-111"/>
     <path d="M 17.625 46.4375 
L 17.625 0 
L 8.84375 0 
L 8.84375 46.4375 
L 1.421875 46.4375 
L 1.421875 52.828125 
L 8.84375 52.828125 
L 8.84375 58.796875 
Q 8.84375 66.015625 12.015625 69.1875 
Q 15.1875 72.359375 21.734375 72.359375 
Q 25.390625 72.359375 27.9375 71.78125 
L 27.9375 65.09375 
Q 25.734375 65.484375 24.03125 65.484375 
Q 20.65625 65.484375 19.140625 63.765625 
Q 17.625 62.0625 17.625 57.5625 
L 17.625 52.828125 
L 27.9375 52.828125 
L 27.9375 46.4375 
z
" id="LiberationSans-102"/>
     <path d="M 15.484375 43.796875 
Q 18.3125 48.96875 22.28125 51.390625 
Q 26.265625 53.8125 32.375 53.8125 
Q 40.96875 53.8125 45.046875 49.53125 
Q 49.125 45.265625 49.125 35.203125 
L 49.125 0 
L 40.28125 0 
L 40.28125 33.5 
Q 40.28125 39.0625 39.25 41.765625 
Q 38.234375 44.484375 35.890625 45.75 
Q 33.546875 47.015625 29.390625 47.015625 
Q 23.1875 47.015625 19.453125 42.71875 
Q 15.71875 38.421875 15.71875 31.15625 
L 15.71875 0 
L 6.9375 0 
L 6.9375 72.46875 
L 15.71875 72.46875 
L 15.71875 53.609375 
Q 15.71875 50.640625 15.546875 47.453125 
Q 15.375 44.28125 15.328125 43.796875 
z
" id="LiberationSans-104"/>
     <path d="M 17.53125 61.1875 
L 17.53125 35.59375 
L 55.90625 35.59375 
L 55.90625 27.875 
L 17.53125 27.875 
L 17.53125 0 
L 8.203125 0 
L 8.203125 68.796875 
L 57.078125 68.796875 
L 57.078125 61.1875 
z
" id="LiberationSans-70"/>
     <path d="M 6.6875 64.0625 
L 6.6875 72.46875 
L 15.484375 72.46875 
L 15.484375 64.0625 
z
M 6.6875 0 
L 6.6875 52.828125 
L 15.484375 52.828125 
L 15.484375 0 
z
" id="LiberationSans-105"/>
     <path d="M 46.390625 14.59375 
Q 46.390625 7.125 40.75 3.0625 
Q 35.109375 -0.984375 24.953125 -0.984375 
Q 15.09375 -0.984375 9.734375 2.265625 
Q 4.390625 5.515625 2.78125 12.40625 
L 10.546875 13.921875 
Q 11.671875 9.671875 15.1875 7.6875 
Q 18.703125 5.71875 24.953125 5.71875 
Q 31.640625 5.71875 34.734375 7.765625 
Q 37.84375 9.8125 37.84375 13.921875 
Q 37.84375 17.046875 35.6875 19 
Q 33.546875 20.953125 28.765625 22.21875 
L 22.46875 23.875 
Q 14.890625 25.828125 11.6875 27.703125 
Q 8.5 29.59375 6.6875 32.28125 
Q 4.890625 34.96875 4.890625 38.875 
Q 4.890625 46.09375 10.03125 49.875 
Q 15.1875 53.65625 25.046875 53.65625 
Q 33.796875 53.65625 38.9375 50.578125 
Q 44.09375 47.515625 45.453125 40.71875 
L 37.546875 39.75 
Q 36.8125 43.265625 33.609375 45.140625 
Q 30.421875 47.015625 25.046875 47.015625 
Q 19.09375 47.015625 16.25 45.203125 
Q 13.421875 43.40625 13.421875 39.75 
Q 13.421875 37.5 14.59375 36.03125 
Q 15.765625 34.578125 18.0625 33.546875 
Q 20.359375 32.515625 27.734375 30.71875 
Q 34.71875 28.953125 37.796875 27.46875 
Q 40.875 25.984375 42.65625 24.171875 
Q 44.4375 22.359375 45.40625 19.984375 
Q 46.390625 17.625 46.390625 14.59375 
z
" id="LiberationSans-115"/>
     <path d="M 6.9375 0 
L 6.9375 40.53125 
Q 6.9375 46.09375 6.640625 52.828125 
L 14.9375 52.828125 
Q 15.328125 43.84375 15.328125 42.046875 
L 15.53125 42.046875 
Q 17.625 48.828125 20.359375 51.3125 
Q 23.09375 53.8125 28.078125 53.8125 
Q 29.828125 53.8125 31.640625 53.328125 
L 31.640625 45.265625 
Q 29.890625 45.75 26.953125 45.75 
Q 21.484375 45.75 18.59375 41.03125 
Q 15.71875 36.328125 15.71875 27.546875 
L 15.71875 0 
z
" id="LiberationSans-114"/>
     <path d="M 40.28125 0 
L 40.28125 33.5 
Q 40.28125 38.71875 39.25 41.59375 
Q 38.234375 44.484375 35.984375 45.75 
Q 33.734375 47.015625 29.390625 47.015625 
Q 23.046875 47.015625 19.375 42.671875 
Q 15.71875 38.328125 15.71875 30.609375 
L 15.71875 0 
L 6.9375 0 
L 6.9375 41.546875 
Q 6.9375 50.78125 6.640625 52.828125 
L 14.9375 52.828125 
Q 14.984375 52.59375 15.03125 51.515625 
Q 15.09375 50.4375 15.15625 49.046875 
Q 15.234375 47.65625 15.328125 43.796875 
L 15.484375 43.796875 
Q 18.5 49.265625 22.484375 51.53125 
Q 26.46875 53.8125 32.375 53.8125 
Q 41.0625 53.8125 45.09375 49.484375 
Q 49.125 45.171875 49.125 35.203125 
L 49.125 0 
z
" id="LiberationSans-110"/>
     <path d="M 37.5 0 
L 37.5 33.5 
Q 37.5 41.15625 35.390625 44.078125 
Q 33.296875 47.015625 27.828125 47.015625 
Q 22.21875 47.015625 18.9375 42.71875 
Q 15.671875 38.421875 15.671875 30.609375 
L 15.671875 0 
L 6.9375 0 
L 6.9375 41.546875 
Q 6.9375 50.78125 6.640625 52.828125 
L 14.9375 52.828125 
Q 14.984375 52.59375 15.03125 51.515625 
Q 15.09375 50.4375 15.15625 49.046875 
Q 15.234375 47.65625 15.328125 43.796875 
L 15.484375 43.796875 
Q 18.3125 49.421875 21.96875 51.609375 
Q 25.640625 53.8125 30.90625 53.8125 
Q 36.921875 53.8125 40.40625 51.421875 
Q 43.890625 49.03125 45.265625 43.796875 
L 45.40625 43.796875 
Q 48.140625 49.125 52.015625 51.46875 
Q 55.90625 53.8125 61.421875 53.8125 
Q 69.4375 53.8125 73.0625 49.46875 
Q 76.703125 45.125 76.703125 35.203125 
L 76.703125 0 
L 68.015625 0 
L 68.015625 33.5 
Q 68.015625 41.15625 65.90625 44.078125 
Q 63.8125 47.015625 58.34375 47.015625 
Q 52.59375 47.015625 49.390625 42.75 
Q 46.1875 38.484375 46.1875 30.609375 
L 46.1875 0 
z
" id="LiberationSans-109"/>
     <path d="M 20.21875 -0.984375 
Q 12.25 -0.984375 8.25 3.21875 
Q 4.25 7.421875 4.25 14.75 
Q 4.25 22.953125 9.640625 27.34375 
Q 15.046875 31.734375 27.046875 32.03125 
L 38.921875 32.234375 
L 38.921875 35.109375 
Q 38.921875 41.546875 36.1875 44.328125 
Q 33.453125 47.125 27.59375 47.125 
Q 21.6875 47.125 19 45.109375 
Q 16.3125 43.109375 15.765625 38.71875 
L 6.59375 39.546875 
Q 8.84375 53.8125 27.78125 53.8125 
Q 37.75 53.8125 42.765625 49.234375 
Q 47.796875 44.671875 47.796875 36.03125 
L 47.796875 13.28125 
Q 47.796875 9.375 48.828125 7.390625 
Q 49.859375 5.421875 52.734375 5.421875 
Q 54 5.421875 55.609375 5.765625 
L 55.609375 0.296875 
Q 52.296875 -0.484375 48.828125 -0.484375 
Q 43.953125 -0.484375 41.71875 2.078125 
Q 39.5 4.640625 39.203125 10.109375 
L 38.921875 10.109375 
Q 35.546875 4.046875 31.078125 1.53125 
Q 26.609375 -0.984375 20.21875 -0.984375 
z
M 22.21875 5.609375 
Q 27.046875 5.609375 30.8125 7.8125 
Q 34.578125 10.015625 36.75 13.84375 
Q 38.921875 17.671875 38.921875 21.734375 
L 38.921875 26.078125 
L 29.296875 25.875 
Q 23.09375 25.78125 19.890625 24.609375 
Q 16.703125 23.4375 14.984375 21 
Q 13.28125 18.5625 13.28125 14.59375 
Q 13.28125 10.296875 15.59375 7.953125 
Q 17.921875 5.609375 22.21875 5.609375 
z
" id="LiberationSans-97"/>
     <path d="M 6.203125 25.984375 
Q 6.203125 40.09375 10.625 51.3125 
Q 15.046875 62.546875 24.21875 72.46875 
L 32.71875 72.46875 
Q 23.578125 62.3125 19.3125 50.875 
Q 15.046875 39.453125 15.046875 25.875 
Q 15.046875 12.359375 19.265625 0.96875 
Q 23.484375 -10.40625 32.71875 -20.703125 
L 24.21875 -20.703125 
Q 14.984375 -10.75 10.59375 0.5 
Q 6.203125 11.765625 6.203125 25.78125 
z
" id="LiberationSans-40"/>
     <path d="M 27.09375 25.78125 
Q 27.09375 11.671875 22.671875 0.4375 
Q 18.265625 -10.796875 9.078125 -20.703125 
L 0.59375 -20.703125 
Q 9.765625 -10.453125 14.015625 0.890625 
Q 18.265625 12.25 18.265625 25.875 
Q 18.265625 39.5 13.984375 50.875 
Q 9.71875 62.25 0.59375 72.46875 
L 9.078125 72.46875 
Q 18.3125 62.5 22.703125 51.234375 
Q 27.09375 39.984375 27.09375 25.984375 
z
" id="LiberationSans-41"/>
    </defs>
    <g style="fill:#262626;" transform="translate(531.02 81.9552)scale(0.19 -0.19)">
     <use transform="translate(0 0.375156)" xlink:href="#LiberationSans-83"/>
     <use transform="translate(66.699219 0.375156)" xlink:href="#LiberationSans-116"/>
     <use transform="translate(94.482422 0.375156)" xlink:href="#LiberationSans-117"/>
     <use transform="translate(150.097656 0.375156)" xlink:href="#LiberationSans-100"/>
     <use transform="translate(205.712891 0.375156)" xlink:href="#LiberationSans-121"/>
     <use transform="translate(255.712891 0.375156)" xlink:href="#LiberationSans-32"/>
     <use transform="translate(283.496094 0.375156)" xlink:href="#LiberationSans-111"/>
     <use transform="translate(339.111328 0.375156)" xlink:href="#LiberationSans-102"/>
     <use transform="translate(366.894531 0.375156)" xlink:href="#LiberationSans-32"/>
     <use transform="translate(394.677734 0.375156)" xlink:href="#LiberationSans-116"/>
     <use transform="translate(422.460938 0.375156)" xlink:href="#LiberationSans-104"/>
     <use transform="translate(478.076172 0.375156)" xlink:href="#LiberationSans-101"/>
     <use transform="translate(533.691406 0.375156)" xlink:href="#LiberationSans-32"/>
     <use transform="translate(561.474609 0.375156)" xlink:href="#LiberationSans-70"/>
     <use transform="translate(622.558594 0.375156)" xlink:href="#LiberationSans-105"/>
     <use transform="translate(644.775391 0.375156)" xlink:href="#LiberationSans-115"/>
     <use transform="translate(694.775391 0.375156)" xlink:href="#LiberationSans-104"/>
     <use transform="translate(750.390625 0.375156)" xlink:href="#LiberationSans-101"/>
     <use transform="translate(806.005859 0.375156)" xlink:href="#LiberationSans-114"/>
     <use transform="translate(839.306641 0.375156)" xlink:href="#LiberationSans-32"/>
     <use transform="translate(867.089844 0.375156)" xlink:href="#LiberationSans-105"/>
     <use transform="translate(889.306641 0.375156)" xlink:href="#LiberationSans-110"/>
     <use transform="translate(944.921875 0.375156)" xlink:href="#LiberationSans-102"/>
     <use transform="translate(972.705078 0.375156)" xlink:href="#LiberationSans-111"/>
     <use transform="translate(1028.320312 0.375156)" xlink:href="#LiberationSans-114"/>
     <use transform="translate(1061.621094 0.375156)" xlink:href="#LiberationSans-109"/>
     <use transform="translate(1144.921875 0.375156)" xlink:href="#LiberationSans-97"/>
     <use transform="translate(1200.537109 0.375156)" xlink:href="#LiberationSans-116"/>
     <use transform="translate(1228.320312 0.375156)" xlink:href="#LiberationSans-105"/>
     <use transform="translate(1250.537109 0.375156)" xlink:href="#LiberationSans-111"/>
     <use transform="translate(1306.152344 0.375156)" xlink:href="#LiberationSans-110"/>
     <use transform="translate(1361.767578 0.375156)" xlink:href="#LiberationSans-32"/>
     <use transform="translate(1389.550781 0.375156)" xlink:href="#LiberationSans-111"/>
     <use transform="translate(1445.166016 0.375156)" xlink:href="#LiberationSans-102"/>
     <use transform="translate(1472.949219 0.375156)" xlink:href="#LiberationSans-32"/>
     <use transform="translate(1500.732422 0.375156)" xlink:href="#DejaVuSans-937"/>
     <use transform="translate(1578.105469 -16.031094)scale(0.7)" xlink:href="#DejaVuSans-48"/>
     <use transform="translate(1625.375977 0.375156)" xlink:href="#LiberationSans-32"/>
     <use transform="translate(1653.15918 0.375156)" xlink:href="#LiberationSans-40"/>
     <use transform="translate(1686.459961 56.353125)scale(0.7)" xlink:href="#DejaVuSans-916"/>
     <use transform="translate(1734.345703 56.353125)scale(0.7)" xlink:href="#DejaVuSans-937"/>
     <use transform="translate(1788.506836 44.86875)scale(0.49)" xlink:href="#DejaVuSans-48"/>
     <use transform="translate(1710.459961 -38.724844)scale(0.7)" xlink:href="#DejaVuSans-937"/>
     <use transform="translate(1764.621094 -50.209219)scale(0.49)" xlink:href="#DejaVuSans-48"/>
     <use transform="translate(1834.096191 0.375156)" xlink:href="#LiberationSans-41"/>
     <path d="M 1686.459961 19.172031 
L 1686.459961 25.422031 
L 1821.596191 25.422031 
L 1821.596191 19.172031 
L 1686.459961 19.172031 
z
"/>
    </g>
   </g>
   <g id="legend_1">
    <g id="line2d_10">
     <path d="M 988.56 117.2952 
L 1024.56 117.2952 
" style="fill:none;stroke:#4c72b0;stroke-linecap:round;stroke-width:1.5;"/>
    </g>
    <g id="line2d_11"/>
    <g id="text_10">
     <!-- $\frac{\Delta \Omega_0}{\Omega_0}$ -->
     <g style="fill:#262626;" transform="translate(1038.96 123.5952)scale(0.18 -0.18)">
      <use transform="translate(0 56.353125)scale(0.7)" xlink:href="#DejaVuSans-916"/>
      <use transform="translate(47.885742 56.353125)scale(0.7)" xlink:href="#DejaVuSans-937"/>
      <use transform="translate(102.046875 44.86875)scale(0.49)" xlink:href="#DejaVuSans-48"/>
      <use transform="translate(24 -38.724844)scale(0.7)" xlink:href="#DejaVuSans-937"/>
      <use transform="translate(78.161133 -50.209219)scale(0.49)" xlink:href="#DejaVuSans-48"/>
      <path d="M 0 19.172031 
L 0 25.422031 
L 135.13623 25.422031 
L 135.13623 19.172031 
L 0 19.172031 
z
"/>
     </g>
    </g>
    <g id="line2d_12">
     <path d="M 988.56 155.0952 
L 1024.56 155.0952 
" style="fill:none;stroke:#dd8452;stroke-linecap:round;stroke-width:1.5;"/>
    </g>
    <g id="line2d_13"/>
    <g id="text_11">
     <!-- Fit : $\frac{\Delta \Omega_0}{\Omega_0} =  a {\Omega_0}^b + c {\Omega_0}^d$ -->
     <defs>
      <path d="M 9.125 42.71875 
L 9.125 52.828125 
L 18.65625 52.828125 
L 18.65625 42.71875 
z
M 9.125 0 
L 9.125 10.109375 
L 18.65625 10.109375 
L 18.65625 0 
z
" id="LiberationSans-58"/>
      <path d="M 46 62.703125 
L 46 35.5 
L 73.1875 35.5 
L 73.1875 27.203125 
L 46 27.203125 
L 46 0 
L 37.796875 0 
L 37.796875 27.203125 
L 10.59375 27.203125 
L 10.59375 35.5 
L 37.796875 35.5 
L 37.796875 62.703125 
z
" id="DejaVuSans-43"/>
     </defs>
     <g style="fill:#262626;" transform="translate(1038.96 161.3952)scale(0.18 -0.18)">
      <use transform="translate(0 0.375156)" xlink:href="#LiberationSans-70"/>
      <use transform="translate(61.083984 0.375156)" xlink:href="#LiberationSans-105"/>
      <use transform="translate(83.300781 0.375156)" xlink:href="#LiberationSans-116"/>
      <use transform="translate(111.083984 0.375156)" xlink:href="#LiberationSans-32"/>
      <use transform="translate(138.867188 0.375156)" xlink:href="#LiberationSans-58"/>
      <use transform="translate(166.650391 0.375156)" xlink:href="#LiberationSans-32"/>
      <use transform="translate(194.433594 56.353125)scale(0.7)" xlink:href="#DejaVuSans-916"/>
      <use transform="translate(242.319336 56.353125)scale(0.7)" xlink:href="#DejaVuSans-937"/>
      <use transform="translate(296.480469 44.86875)scale(0.49)" xlink:href="#DejaVuSans-48"/>
      <use transform="translate(218.433594 -38.724844)scale(0.7)" xlink:href="#DejaVuSans-937"/>
      <use transform="translate(272.594727 -50.209219)scale(0.49)" xlink:href="#DejaVuSans-48"/>
      <use transform="translate(361.552246 0.375156)" xlink:href="#DejaVuSans-61"/>
      <use transform="translate(464.82373 0.375156)" xlink:href="#DejaVuSans-Oblique-97"/>
      <use transform="translate(526.103027 0.375156)" xlink:href="#DejaVuSans-937"/>
      <use transform="translate(603.476074 -16.031094)scale(0.7)" xlink:href="#DejaVuSans-48"/>
      <use transform="translate(651.703613 38.656406)scale(0.7)" xlink:href="#DejaVuSans-Oblique-98"/>
      <use transform="translate(718.354004 0.375156)" xlink:href="#DejaVuSans-43"/>
      <use transform="translate(821.625488 0.375156)" xlink:href="#DejaVuSans-Oblique-99"/>
      <use transform="translate(876.605957 0.375156)" xlink:href="#DejaVuSans-937"/>
      <use transform="translate(953.979004 -16.031094)scale(0.7)" xlink:href="#DejaVuSans-48"/>
      <use transform="translate(1002.206543 38.656406)scale(0.7)" xlink:href="#DejaVuSans-Oblique-100"/>
      <path d="M 194.433594 19.172031 
L 194.433594 25.422031 
L 329.569824 25.422031 
L 329.569824 19.172031 
L 194.433594 19.172031 
z
"/>
     </g>
    </g>
    <g id="line2d_14">
     <path d="M 988.56 192.8952 
L 1024.56 192.8952 
" style="fill:none;stroke:#ff0000;stroke-linecap:round;stroke-width:1.5;"/>
    </g>
    <g id="line2d_15"/>
    <g id="text_12">
     <!-- $\frac{\Delta \Omega_0}{\Omega_0} = 0,5$ -->
     <defs>
      <path d="M 11.71875 12.40625 
L 22.015625 12.40625 
L 22.015625 4 
L 14.015625 -11.625 
L 7.71875 -11.625 
L 11.71875 4 
z
" id="DejaVuSans-44"/>
      <path d="M 10.796875 72.90625 
L 49.515625 72.90625 
L 49.515625 64.59375 
L 19.828125 64.59375 
L 19.828125 46.734375 
Q 21.96875 47.46875 24.109375 47.828125 
Q 26.265625 48.1875 28.421875 48.1875 
Q 40.625 48.1875 47.75 41.5 
Q 54.890625 34.8125 54.890625 23.390625 
Q 54.890625 11.625 47.5625 5.09375 
Q 40.234375 -1.421875 26.90625 -1.421875 
Q 22.3125 -1.421875 17.546875 -0.640625 
Q 12.796875 0.140625 7.71875 1.703125 
L 7.71875 11.625 
Q 12.109375 9.234375 16.796875 8.0625 
Q 21.484375 6.890625 26.703125 6.890625 
Q 35.15625 6.890625 40.078125 11.328125 
Q 45.015625 15.765625 45.015625 23.390625 
Q 45.015625 31 40.078125 35.4375 
Q 35.15625 39.890625 26.703125 39.890625 
Q 22.75 39.890625 18.8125 39.015625 
Q 14.890625 38.140625 10.796875 36.28125 
z
" id="DejaVuSans-53"/>
     </defs>
     <g style="fill:#262626;" transform="translate(1038.96 199.1952)scale(0.18 -0.18)">
      <use transform="translate(0 56.353125)scale(0.7)" xlink:href="#DejaVuSans-916"/>
      <use transform="translate(47.885742 56.353125)scale(0.7)" xlink:href="#DejaVuSans-937"/>
      <use transform="translate(102.046875 44.86875)scale(0.49)" xlink:href="#DejaVuSans-48"/>
      <use transform="translate(24 -38.724844)scale(0.7)" xlink:href="#DejaVuSans-937"/>
      <use transform="translate(78.161133 -50.209219)scale(0.49)" xlink:href="#DejaVuSans-48"/>
      <use transform="translate(167.118652 0.375156)" xlink:href="#DejaVuSans-61"/>
      <use transform="translate(270.390137 0.375156)" xlink:href="#DejaVuSans-48"/>
      <use transform="translate(334.013184 0.375156)" xlink:href="#DejaVuSans-44"/>
      <use transform="translate(385.282715 0.375156)" xlink:href="#DejaVuSans-53"/>
      <path d="M 0 19.172031 
L 0 25.422031 
L 135.13623 25.422031 
L 135.13623 19.172031 
L 0 19.172031 
z
"/>
     </g>
    </g>
    <g id="line2d_16">
     <path d="M 988.56 230.6952 
L 1024.56 230.6952 
" style="fill:none;stroke:#008000;stroke-linecap:round;stroke-width:1.5;"/>
    </g>
    <g id="line2d_17"/>
    <g id="text_13">
     <!-- $\frac{\Delta \Omega_0}{\Omega_0} = 0,1$ -->
     <defs>
      <path d="M 12.40625 8.296875 
L 28.515625 8.296875 
L 28.515625 63.921875 
L 10.984375 60.40625 
L 10.984375 69.390625 
L 28.421875 72.90625 
L 38.28125 72.90625 
L 38.28125 8.296875 
L 54.390625 8.296875 
L 54.390625 0 
L 12.40625 0 
z
" id="DejaVuSans-49"/>
     </defs>
     <g style="fill:#262626;" transform="translate(1038.96 236.9952)scale(0.18 -0.18)">
      <use transform="translate(0 56.353125)scale(0.7)" xlink:href="#DejaVuSans-916"/>
      <use transform="translate(47.885742 56.353125)scale(0.7)" xlink:href="#DejaVuSans-937"/>
      <use transform="translate(102.046875 44.86875)scale(0.49)" xlink:href="#DejaVuSans-48"/>
      <use transform="translate(24 -38.724844)scale(0.7)" xlink:href="#DejaVuSans-937"/>
      <use transform="translate(78.161133 -50.209219)scale(0.49)" xlink:href="#DejaVuSans-48"/>
      <use transform="translate(167.118652 0.375156)" xlink:href="#DejaVuSans-61"/>
      <use transform="translate(270.390137 0.375156)" xlink:href="#DejaVuSans-48"/>
      <use transform="translate(334.013184 0.375156)" xlink:href="#DejaVuSans-44"/>
      <use transform="translate(385.282715 0.375156)" xlink:href="#DejaVuSans-49"/>
      <path d="M 0 19.172031 
L 0 25.422031 
L 135.13623 25.422031 
L 135.13623 19.172031 
L 0 19.172031 
z
"/>
     </g>
    </g>
   </g>
  </g>
 </g>
 <defs>
  <clipPath id="p1c105bfe00">
   <rect height="564.3792" width="1071.36" x="172.8" y="87.9552"/>
  </clipPath>
 </defs>
</svg>
